<mxfile host="app.diagrams.net" modified="2023-10-20T06:14:48.297Z" agent="Mozilla/5.0 (Macintosh; Intel Mac OS X 10_15_7) AppleWebKit/537.36 (KHTML, like Gecko) Chrome/118.0.0.0 Safari/537.36" etag="PmKjkGl_8fckesEOPbxH" version="22.0.5" type="github">
  <diagram name="Page-1" id="daQMxPoLiWvEaAu8mH8G">
    <mxGraphModel dx="651" dy="601" grid="1" gridSize="10" guides="1" tooltips="1" connect="1" arrows="1" fold="1" page="1" pageScale="1" pageWidth="850" pageHeight="1100" math="0" shadow="0">
      <root>
        <mxCell id="0" />
        <mxCell id="1" parent="0" />
        <mxCell id="7IKaTa6HvfbyAlti07tv-11" value="" style="edgeStyle=orthogonalEdgeStyle;rounded=0;orthogonalLoop=1;jettySize=auto;html=1;entryX=0;entryY=0.5;entryDx=0;entryDy=0;" edge="1" parent="1" source="7IKaTa6HvfbyAlti07tv-1" target="7IKaTa6HvfbyAlti07tv-67">
          <mxGeometry relative="1" as="geometry">
            <mxPoint x="410" y="190" as="targetPoint" />
          </mxGeometry>
        </mxCell>
        <mxCell id="7IKaTa6HvfbyAlti07tv-12" value="payforplan" style="edgeLabel;html=1;align=center;verticalAlign=middle;resizable=0;points=[];" vertex="1" connectable="0" parent="7IKaTa6HvfbyAlti07tv-11">
          <mxGeometry x="0.1019" y="-1" relative="1" as="geometry">
            <mxPoint y="-21" as="offset" />
          </mxGeometry>
        </mxCell>
        <mxCell id="7IKaTa6HvfbyAlti07tv-34" style="edgeStyle=orthogonalEdgeStyle;rounded=0;orthogonalLoop=1;jettySize=auto;html=1;exitX=1;exitY=0.75;exitDx=0;exitDy=0;entryX=0;entryY=0.5;entryDx=0;entryDy=0;" edge="1" parent="1" source="7IKaTa6HvfbyAlti07tv-1" target="7IKaTa6HvfbyAlti07tv-66">
          <mxGeometry relative="1" as="geometry" />
        </mxCell>
        <mxCell id="7IKaTa6HvfbyAlti07tv-35" value="CreateOrder&lt;br&gt;QueryOrders" style="edgeLabel;html=1;align=center;verticalAlign=middle;resizable=0;points=[];" vertex="1" connectable="0" parent="7IKaTa6HvfbyAlti07tv-34">
          <mxGeometry x="-0.0263" y="-2" relative="1" as="geometry">
            <mxPoint as="offset" />
          </mxGeometry>
        </mxCell>
        <mxCell id="7IKaTa6HvfbyAlti07tv-1" value="Ottergate" style="rounded=0;whiteSpace=wrap;html=1;" vertex="1" parent="1">
          <mxGeometry x="200" y="170" width="120" height="60" as="geometry" />
        </mxCell>
        <mxCell id="7IKaTa6HvfbyAlti07tv-2" value="" style="endArrow=classic;html=1;rounded=0;entryX=0;entryY=0.5;entryDx=0;entryDy=0;" edge="1" parent="1" source="7IKaTa6HvfbyAlti07tv-24" target="7IKaTa6HvfbyAlti07tv-1">
          <mxGeometry width="50" height="50" relative="1" as="geometry">
            <mxPoint x="60" y="200" as="sourcePoint" />
            <mxPoint x="110" y="200" as="targetPoint" />
          </mxGeometry>
        </mxCell>
        <mxCell id="7IKaTa6HvfbyAlti07tv-16" style="edgeStyle=orthogonalEdgeStyle;rounded=0;orthogonalLoop=1;jettySize=auto;html=1;exitX=1;exitY=0.5;exitDx=0;exitDy=0;" edge="1" parent="1" source="7IKaTa6HvfbyAlti07tv-10" target="7IKaTa6HvfbyAlti07tv-13">
          <mxGeometry relative="1" as="geometry" />
        </mxCell>
        <mxCell id="7IKaTa6HvfbyAlti07tv-36" style="edgeStyle=orthogonalEdgeStyle;rounded=0;orthogonalLoop=1;jettySize=auto;html=1;exitX=0.5;exitY=1;exitDx=0;exitDy=0;" edge="1" parent="1" source="7IKaTa6HvfbyAlti07tv-10" target="7IKaTa6HvfbyAlti07tv-33">
          <mxGeometry relative="1" as="geometry" />
        </mxCell>
        <mxCell id="7IKaTa6HvfbyAlti07tv-10" value="Order Service" style="whiteSpace=wrap;html=1;rounded=0;fillColor=#ffe6cc;strokeColor=#d79b00;" vertex="1" parent="1">
          <mxGeometry x="622.5" y="170" width="120" height="60" as="geometry" />
        </mxCell>
        <mxCell id="7IKaTa6HvfbyAlti07tv-21" style="edgeStyle=orthogonalEdgeStyle;rounded=0;orthogonalLoop=1;jettySize=auto;html=1;exitX=1;exitY=0.5;exitDx=0;exitDy=0;entryX=0;entryY=0.5;entryDx=0;entryDy=0;" edge="1" parent="1" source="7IKaTa6HvfbyAlti07tv-13" target="7IKaTa6HvfbyAlti07tv-19">
          <mxGeometry relative="1" as="geometry" />
        </mxCell>
        <mxCell id="7IKaTa6HvfbyAlti07tv-94" style="edgeStyle=orthogonalEdgeStyle;rounded=0;orthogonalLoop=1;jettySize=auto;html=1;exitX=0;exitY=0.5;exitDx=0;exitDy=0;entryX=0.75;entryY=0;entryDx=0;entryDy=0;exitPerimeter=0;" edge="1" parent="1" source="7IKaTa6HvfbyAlti07tv-96" target="7IKaTa6HvfbyAlti07tv-10">
          <mxGeometry relative="1" as="geometry" />
        </mxCell>
        <mxCell id="7IKaTa6HvfbyAlti07tv-13" value="Payment Service" style="whiteSpace=wrap;html=1;rounded=0;" vertex="1" parent="1">
          <mxGeometry x="820" y="170" width="120" height="60" as="geometry" />
        </mxCell>
        <mxCell id="7IKaTa6HvfbyAlti07tv-14" value="Order" style="shape=cylinder3;whiteSpace=wrap;html=1;boundedLbl=1;backgroundOutline=1;size=15;fillColor=#ffe6cc;strokeColor=#d79b00;" vertex="1" parent="1">
          <mxGeometry x="652.5" y="70" width="60" height="60" as="geometry" />
        </mxCell>
        <mxCell id="7IKaTa6HvfbyAlti07tv-15" style="edgeStyle=orthogonalEdgeStyle;rounded=0;orthogonalLoop=1;jettySize=auto;html=1;exitX=0.5;exitY=0;exitDx=0;exitDy=0;entryX=0.5;entryY=1;entryDx=0;entryDy=0;entryPerimeter=0;" edge="1" parent="1" source="7IKaTa6HvfbyAlti07tv-10" target="7IKaTa6HvfbyAlti07tv-14">
          <mxGeometry relative="1" as="geometry" />
        </mxCell>
        <mxCell id="7IKaTa6HvfbyAlti07tv-17" value="Payment&lt;br&gt;Record" style="shape=cylinder3;whiteSpace=wrap;html=1;boundedLbl=1;backgroundOutline=1;size=15;" vertex="1" parent="1">
          <mxGeometry x="850" y="70" width="60" height="60" as="geometry" />
        </mxCell>
        <mxCell id="7IKaTa6HvfbyAlti07tv-18" style="edgeStyle=orthogonalEdgeStyle;rounded=0;orthogonalLoop=1;jettySize=auto;html=1;entryX=0.5;entryY=1;entryDx=0;entryDy=0;entryPerimeter=0;" edge="1" parent="1" source="7IKaTa6HvfbyAlti07tv-13" target="7IKaTa6HvfbyAlti07tv-17">
          <mxGeometry relative="1" as="geometry" />
        </mxCell>
        <mxCell id="7IKaTa6HvfbyAlti07tv-22" style="edgeStyle=orthogonalEdgeStyle;rounded=0;orthogonalLoop=1;jettySize=auto;html=1;exitX=0.5;exitY=1;exitDx=0;exitDy=0;entryX=0.5;entryY=0;entryDx=0;entryDy=0;" edge="1" parent="1" source="7IKaTa6HvfbyAlti07tv-19" target="7IKaTa6HvfbyAlti07tv-20">
          <mxGeometry relative="1" as="geometry" />
        </mxCell>
        <mxCell id="7IKaTa6HvfbyAlti07tv-19" value="Payment Gateway" style="whiteSpace=wrap;html=1;rounded=0;" vertex="1" parent="1">
          <mxGeometry x="980" y="170" width="120" height="60" as="geometry" />
        </mxCell>
        <mxCell id="7IKaTa6HvfbyAlti07tv-20" value="Alipay" style="whiteSpace=wrap;html=1;rounded=0;" vertex="1" parent="1">
          <mxGeometry x="980" y="270" width="120" height="60" as="geometry" />
        </mxCell>
        <mxCell id="7IKaTa6HvfbyAlti07tv-23" value="Item DB" style="shape=cylinder3;whiteSpace=wrap;html=1;boundedLbl=1;backgroundOutline=1;size=15;" vertex="1" parent="1">
          <mxGeometry x="652.5" y="440" width="60" height="60" as="geometry" />
        </mxCell>
        <mxCell id="7IKaTa6HvfbyAlti07tv-26" style="edgeStyle=orthogonalEdgeStyle;rounded=0;orthogonalLoop=1;jettySize=auto;html=1;entryX=0.5;entryY=0;entryDx=0;entryDy=0;" edge="1" parent="1" source="7IKaTa6HvfbyAlti07tv-24" target="7IKaTa6HvfbyAlti07tv-25">
          <mxGeometry relative="1" as="geometry" />
        </mxCell>
        <mxCell id="7IKaTa6HvfbyAlti07tv-25" value="Alipay SDK" style="rounded=0;whiteSpace=wrap;html=1;" vertex="1" parent="1">
          <mxGeometry x="20" y="330" width="120" height="60" as="geometry" />
        </mxCell>
        <mxCell id="7IKaTa6HvfbyAlti07tv-28" style="edgeStyle=orthogonalEdgeStyle;rounded=0;orthogonalLoop=1;jettySize=auto;html=1;exitX=0;exitY=0.5;exitDx=0;exitDy=0;entryX=1;entryY=0.5;entryDx=0;entryDy=0;" edge="1" parent="1" source="7IKaTa6HvfbyAlti07tv-27" target="7IKaTa6HvfbyAlti07tv-25">
          <mxGeometry relative="1" as="geometry" />
        </mxCell>
        <mxCell id="7IKaTa6HvfbyAlti07tv-29" value="Success" style="edgeLabel;html=1;align=center;verticalAlign=middle;resizable=0;points=[];" vertex="1" connectable="0" parent="7IKaTa6HvfbyAlti07tv-28">
          <mxGeometry x="0.2786" y="1" relative="1" as="geometry">
            <mxPoint x="8" y="-11" as="offset" />
          </mxGeometry>
        </mxCell>
        <mxCell id="7IKaTa6HvfbyAlti07tv-30" style="edgeStyle=orthogonalEdgeStyle;rounded=0;orthogonalLoop=1;jettySize=auto;html=1;exitX=0.5;exitY=0;exitDx=0;exitDy=0;entryX=0.5;entryY=1;entryDx=0;entryDy=0;" edge="1" parent="1" source="7IKaTa6HvfbyAlti07tv-27" target="7IKaTa6HvfbyAlti07tv-1">
          <mxGeometry relative="1" as="geometry" />
        </mxCell>
        <mxCell id="7IKaTa6HvfbyAlti07tv-31" value="Payment callback" style="edgeLabel;html=1;align=center;verticalAlign=middle;resizable=0;points=[];" vertex="1" connectable="0" parent="7IKaTa6HvfbyAlti07tv-30">
          <mxGeometry x="-0.3001" y="-1" relative="1" as="geometry">
            <mxPoint x="-1" y="-25" as="offset" />
          </mxGeometry>
        </mxCell>
        <mxCell id="7IKaTa6HvfbyAlti07tv-83" value="" style="edgeStyle=orthogonalEdgeStyle;rounded=0;orthogonalLoop=1;jettySize=auto;html=1;" edge="1" parent="1" source="7IKaTa6HvfbyAlti07tv-27" target="7IKaTa6HvfbyAlti07tv-25">
          <mxGeometry relative="1" as="geometry" />
        </mxCell>
        <mxCell id="7IKaTa6HvfbyAlti07tv-27" value="Alipay Server" style="rounded=0;whiteSpace=wrap;html=1;" vertex="1" parent="1">
          <mxGeometry x="200" y="330" width="120" height="60" as="geometry" />
        </mxCell>
        <mxCell id="7IKaTa6HvfbyAlti07tv-33" value="Item Service&lt;br&gt;+ Inventory" style="rounded=0;whiteSpace=wrap;html=1;fillColor=#d5e8d4;strokeColor=#82b366;" vertex="1" parent="1">
          <mxGeometry x="620" y="357" width="125" height="60" as="geometry" />
        </mxCell>
        <mxCell id="7IKaTa6HvfbyAlti07tv-50" style="edgeStyle=orthogonalEdgeStyle;rounded=0;orthogonalLoop=1;jettySize=auto;html=1;exitX=0.75;exitY=1;exitDx=0;exitDy=0;entryX=0.75;entryY=0;entryDx=0;entryDy=0;" edge="1" parent="1" source="7IKaTa6HvfbyAlti07tv-46" target="7IKaTa6HvfbyAlti07tv-48">
          <mxGeometry relative="1" as="geometry" />
        </mxCell>
        <mxCell id="7IKaTa6HvfbyAlti07tv-51" value="pull" style="edgeLabel;html=1;align=center;verticalAlign=middle;resizable=0;points=[];" vertex="1" connectable="0" parent="7IKaTa6HvfbyAlti07tv-50">
          <mxGeometry x="-0.3685" y="-2" relative="1" as="geometry">
            <mxPoint as="offset" />
          </mxGeometry>
        </mxCell>
        <mxCell id="7IKaTa6HvfbyAlti07tv-85" style="edgeStyle=orthogonalEdgeStyle;rounded=0;orthogonalLoop=1;jettySize=auto;html=1;exitX=0.25;exitY=0;exitDx=0;exitDy=0;entryX=0.25;entryY=1;entryDx=0;entryDy=0;" edge="1" parent="1" source="7IKaTa6HvfbyAlti07tv-46" target="7IKaTa6HvfbyAlti07tv-66">
          <mxGeometry relative="1" as="geometry" />
        </mxCell>
        <mxCell id="7IKaTa6HvfbyAlti07tv-46" value="Intergation gateway" style="rounded=0;whiteSpace=wrap;html=1;fillColor=#d5e8d4;strokeColor=#82b366;" vertex="1" parent="1">
          <mxGeometry x="390" y="480" width="120" height="60" as="geometry" />
        </mxCell>
        <mxCell id="7IKaTa6HvfbyAlti07tv-47" value="" style="shape=image;html=1;verticalAlign=top;verticalLabelPosition=bottom;labelBackgroundColor=#ffffff;imageAspect=0;aspect=fixed;image=https://cdn3.iconfinder.com/data/icons/UltimateGnome/128x128/status/gnome-fs-loading-icon.png" vertex="1" parent="1">
          <mxGeometry x="490" y="560" width="40" height="40" as="geometry" />
        </mxCell>
        <mxCell id="7IKaTa6HvfbyAlti07tv-56" style="edgeStyle=orthogonalEdgeStyle;rounded=0;orthogonalLoop=1;jettySize=auto;html=1;exitX=0.25;exitY=0;exitDx=0;exitDy=0;entryX=0.25;entryY=1;entryDx=0;entryDy=0;" edge="1" parent="1" source="7IKaTa6HvfbyAlti07tv-48" target="7IKaTa6HvfbyAlti07tv-46">
          <mxGeometry relative="1" as="geometry" />
        </mxCell>
        <mxCell id="7IKaTa6HvfbyAlti07tv-57" value="push" style="edgeLabel;html=1;align=center;verticalAlign=middle;resizable=0;points=[];" vertex="1" connectable="0" parent="7IKaTa6HvfbyAlti07tv-56">
          <mxGeometry x="0.309" y="3" relative="1" as="geometry">
            <mxPoint as="offset" />
          </mxGeometry>
        </mxCell>
        <mxCell id="7IKaTa6HvfbyAlti07tv-48" value="万里牛" style="rounded=0;whiteSpace=wrap;html=1;" vertex="1" parent="1">
          <mxGeometry x="390" y="620" width="120" height="60" as="geometry" />
        </mxCell>
        <mxCell id="7IKaTa6HvfbyAlti07tv-54" value="Delivery" style="rounded=0;whiteSpace=wrap;html=1;fillColor=#d5e8d4;strokeColor=#82b366;" vertex="1" parent="1">
          <mxGeometry x="745" y="357" width="120" height="60" as="geometry" />
        </mxCell>
        <mxCell id="7IKaTa6HvfbyAlti07tv-58" style="edgeStyle=orthogonalEdgeStyle;rounded=0;orthogonalLoop=1;jettySize=auto;html=1;exitX=0.5;exitY=1;exitDx=0;exitDy=0;entryX=0.5;entryY=0;entryDx=0;entryDy=0;entryPerimeter=0;" edge="1" parent="1" source="7IKaTa6HvfbyAlti07tv-33" target="7IKaTa6HvfbyAlti07tv-23">
          <mxGeometry relative="1" as="geometry" />
        </mxCell>
        <mxCell id="7IKaTa6HvfbyAlti07tv-64" value="" style="endArrow=classic;html=1;rounded=0;entryX=0;entryY=0.5;entryDx=0;entryDy=0;" edge="1" parent="1" target="7IKaTa6HvfbyAlti07tv-24">
          <mxGeometry width="50" height="50" relative="1" as="geometry">
            <mxPoint x="60" y="200" as="sourcePoint" />
            <mxPoint x="200" y="200" as="targetPoint" />
          </mxGeometry>
        </mxCell>
        <mxCell id="7IKaTa6HvfbyAlti07tv-24" value="" style="html=1;verticalLabelPosition=bottom;align=center;labelBackgroundColor=#ffffff;verticalAlign=top;strokeWidth=2;strokeColor=#0080F0;shadow=0;dashed=0;shape=mxgraph.ios7.icons.smartphone;" vertex="1" parent="1">
          <mxGeometry x="71" y="185" width="18" height="30" as="geometry" />
        </mxCell>
        <mxCell id="7IKaTa6HvfbyAlti07tv-81" style="edgeStyle=orthogonalEdgeStyle;rounded=0;orthogonalLoop=1;jettySize=auto;html=1;exitX=0.75;exitY=1;exitDx=0;exitDy=0;entryX=0.75;entryY=0;entryDx=0;entryDy=0;" edge="1" parent="1" source="7IKaTa6HvfbyAlti07tv-66" target="7IKaTa6HvfbyAlti07tv-46">
          <mxGeometry relative="1" as="geometry" />
        </mxCell>
        <mxCell id="7IKaTa6HvfbyAlti07tv-82" value="Sync Item/Order" style="edgeLabel;html=1;align=center;verticalAlign=middle;resizable=0;points=[];" vertex="1" connectable="0" parent="7IKaTa6HvfbyAlti07tv-81">
          <mxGeometry x="0.085" y="-1" relative="1" as="geometry">
            <mxPoint as="offset" />
          </mxGeometry>
        </mxCell>
        <mxCell id="7IKaTa6HvfbyAlti07tv-66" value="Mall&lt;br&gt;商品系统业务逻辑" style="rounded=0;whiteSpace=wrap;html=1;fillColor=#d5e8d4;strokeColor=#82b366;" vertex="1" parent="1">
          <mxGeometry x="390" y="350" width="120" height="60" as="geometry" />
        </mxCell>
        <mxCell id="7IKaTa6HvfbyAlti07tv-70" style="edgeStyle=orthogonalEdgeStyle;rounded=0;orthogonalLoop=1;jettySize=auto;html=1;exitX=1;exitY=0.5;exitDx=0;exitDy=0;entryX=0;entryY=0.5;entryDx=0;entryDy=0;" edge="1" parent="1" source="7IKaTa6HvfbyAlti07tv-67" target="7IKaTa6HvfbyAlti07tv-10">
          <mxGeometry relative="1" as="geometry" />
        </mxCell>
        <mxCell id="7IKaTa6HvfbyAlti07tv-67" value="Plan" style="rounded=0;whiteSpace=wrap;html=1;" vertex="1" parent="1">
          <mxGeometry x="400" y="170" width="120" height="60" as="geometry" />
        </mxCell>
        <mxCell id="7IKaTa6HvfbyAlti07tv-77" style="edgeStyle=orthogonalEdgeStyle;rounded=0;orthogonalLoop=1;jettySize=auto;html=1;exitX=0.75;exitY=0;exitDx=0;exitDy=0;entryX=0.25;entryY=1;entryDx=0;entryDy=0;" edge="1" parent="1" source="7IKaTa6HvfbyAlti07tv-66" target="7IKaTa6HvfbyAlti07tv-10">
          <mxGeometry relative="1" as="geometry">
            <Array as="points">
              <mxPoint x="480" y="340" />
              <mxPoint x="653" y="340" />
            </Array>
          </mxGeometry>
        </mxCell>
        <mxCell id="7IKaTa6HvfbyAlti07tv-78" style="edgeStyle=orthogonalEdgeStyle;rounded=0;orthogonalLoop=1;jettySize=auto;html=1;exitX=1;exitY=0.5;exitDx=0;exitDy=0;entryX=-0.006;entryY=0.373;entryDx=0;entryDy=0;entryPerimeter=0;" edge="1" parent="1" source="7IKaTa6HvfbyAlti07tv-66" target="7IKaTa6HvfbyAlti07tv-33">
          <mxGeometry relative="1" as="geometry" />
        </mxCell>
        <mxCell id="7IKaTa6HvfbyAlti07tv-87" value="Subscription" style="rounded=0;whiteSpace=wrap;html=1;" vertex="1" parent="1">
          <mxGeometry x="400" y="80" width="120" height="60" as="geometry" />
        </mxCell>
        <mxCell id="7IKaTa6HvfbyAlti07tv-97" value="" style="edgeStyle=orthogonalEdgeStyle;rounded=0;orthogonalLoop=1;jettySize=auto;html=1;exitX=0.25;exitY=0;exitDx=0;exitDy=0;entryX=1;entryY=0.5;entryDx=0;entryDy=0;entryPerimeter=0;" edge="1" parent="1" source="7IKaTa6HvfbyAlti07tv-13" target="7IKaTa6HvfbyAlti07tv-96">
          <mxGeometry relative="1" as="geometry">
            <mxPoint x="850" y="170" as="sourcePoint" />
            <mxPoint x="713" y="170" as="targetPoint" />
          </mxGeometry>
        </mxCell>
        <mxCell id="7IKaTa6HvfbyAlti07tv-96" value="Payment&lt;br&gt;Queue" style="outlineConnect=0;dashed=0;verticalLabelPosition=bottom;verticalAlign=top;align=center;html=1;shape=mxgraph.aws3.queue;fillColor=#D9A741;gradientColor=none;" vertex="1" parent="1">
          <mxGeometry x="750" y="120" width="47" height="20" as="geometry" />
        </mxCell>
        <mxCell id="7IKaTa6HvfbyAlti07tv-100" style="edgeStyle=orthogonalEdgeStyle;rounded=0;orthogonalLoop=1;jettySize=auto;html=1;exitX=0;exitY=0.5;exitDx=0;exitDy=0;exitPerimeter=0;entryX=1;entryY=0.5;entryDx=0;entryDy=0;" edge="1" parent="1" source="7IKaTa6HvfbyAlti07tv-98" target="7IKaTa6HvfbyAlti07tv-87">
          <mxGeometry relative="1" as="geometry" />
        </mxCell>
        <mxCell id="7IKaTa6HvfbyAlti07tv-102" style="edgeStyle=orthogonalEdgeStyle;rounded=0;orthogonalLoop=1;jettySize=auto;html=1;exitX=0.5;exitY=1;exitDx=0;exitDy=0;exitPerimeter=0;" edge="1" parent="1" source="7IKaTa6HvfbyAlti07tv-98" target="7IKaTa6HvfbyAlti07tv-66">
          <mxGeometry relative="1" as="geometry" />
        </mxCell>
        <mxCell id="7IKaTa6HvfbyAlti07tv-98" value="Order&lt;br&gt;Event" style="outlineConnect=0;dashed=0;verticalLabelPosition=bottom;verticalAlign=top;align=center;html=1;shape=mxgraph.aws3.queue;fillColor=#D9A741;gradientColor=none;" vertex="1" parent="1">
          <mxGeometry x="560" y="130" width="47" height="20" as="geometry" />
        </mxCell>
        <mxCell id="7IKaTa6HvfbyAlti07tv-99" style="edgeStyle=orthogonalEdgeStyle;rounded=0;orthogonalLoop=1;jettySize=auto;html=1;exitX=0.25;exitY=0;exitDx=0;exitDy=0;entryX=1;entryY=0.5;entryDx=0;entryDy=0;entryPerimeter=0;" edge="1" parent="1" source="7IKaTa6HvfbyAlti07tv-10" target="7IKaTa6HvfbyAlti07tv-98">
          <mxGeometry relative="1" as="geometry" />
        </mxCell>
      </root>
    </mxGraphModel>
  </diagram>
</mxfile>
